<svg xmlns="http://www.w3.org/2000/svg" viewBox="0 0 37.05 30.32">
<path d="M759.33,544.47a4.14,4.14,0,0,0-2.42.78l-8.37-6.55a4.16,4.16,0,0,0,.17-1.18,4.24,4.24,0,0,0-.35-1.68l7.9-6.18a4.17,4.17,0,1,0-1-1.61l-8,6.27a4.17,4.17,0,0,0-6.86,3.2,4.1,4.1,0,0,0,.58,2.11l-7.55,5.9a4.11,4.11,0,0,0-2.77-1.06,4.18,4.18,0,1,0,4.18,4.18,4.06,4.06,0,0,0-.31-1.56l7.77-6.07a4.21,4.21,0,0,0,2.28.67,4.16,4.16,0,0,0,3-1.32l8.07,6.31a4.06,4.06,0,0,0-.5,2,4.18,4.18,0,1,0,4.18-4.18Z" transform="translate(-726.45 -522.51)"/>
</svg>